<?xml version="1.0" encoding="UTF-8"?>
<svg width="60px" height="60px" viewBox="0 0 60 60" version="1.1" xmlns="http://www.w3.org/2000/svg" xmlns:xlink="http://www.w3.org/1999/xlink">
    <!-- Generator: Sketch 47.1 (45422) - http://www.bohemiancoding.com/sketch -->
    <title>ads</title>
    <desc>Created with Sketch.</desc>
    <defs></defs>
    <g id="Page-1" stroke="none" stroke-width="1" fill="none" fill-rule="evenodd">
        <g id="ads" fill="#222222" fill-rule="nonzero">
            <path d="M42.7476343,11.0001407 C42.4931122,11.0040898 42.25458,11.123073 42.1008097,11.3227859 L37.5845412,15.7675695 L4.5993903,25.0463294 C4.24433303,25.1467507 3.99979652,25.4665771 4.00000013,25.8302649 L4.00000013,35.1684141 C4.00045259,35.5315647 4.24485711,35.8506277 4.5993903,35.9509005 L14.1436381,38.636785 C13.4439111,42.6699228 15.9337722,46.6540827 19.9981142,47.7952087 C24.0590745,48.9355377 28.3082182,46.8472409 29.877273,43.0631222 L37.5845412,45.2310443 L42.1008097,49.6758568 C42.2594699,49.8828427 42.5086947,50.0031667 42.7720698,49.9999366 C43.0134231,49.9993971 43.2425247,49.8952124 43.399412,49.7146509 C43.5562993,49.5340893 43.625355,49.2951246 43.5885054,49.0603008 L43.5885054,11.9270248 C43.6196647,11.704076 43.5558157,11.4783643 43.4120855,11.3033649 C43.2683552,11.1283654 43.0575326,11.0196494 42.8295652,11.0029736 C42.8023203,11.0006763 42.7749764,10.9997091 42.7476343,11.0000755 L42.7476343,11.0001407 Z M41.9326359,13.7921102 L41.9326359,47.2065326 L38.8465662,44.1669352 L38.8465662,16.8317438 L41.9326359,13.7921102 L41.9326359,13.7921102 Z M56.1325794,14.9185211 C55.9175604,14.9246902 55.7134194,15.0129959 55.5633739,15.1647434 L48.0659648,22.543025 C47.757561,22.8642379 47.7650935,23.3688222 48.0829522,23.680974 C48.4008109,23.9931258 48.9133639,23.9992893 49.2388723,23.694874 L56.7334069,16.3166286 C56.9772122,16.0822435 57.0502639,15.7247438 56.9174874,15.4157769 C56.7847109,15.10681 56.4732231,14.9094758 56.1325794,14.9185211 L56.1325794,14.9185211 Z M37.1906967,17.5760477 L37.1906967,43.4225588 L5.65586963,34.5527857 L5.65586963,26.4458209 L37.1906967,17.5760477 Z M48.6524186,29.6834742 C48.3537344,29.679165 48.0758465,29.8335709 47.9252265,30.087532 C47.7746066,30.3414931 47.7746066,30.6556354 47.9252265,30.9095965 C48.0758465,31.1635576 48.3537344,31.3179635 48.6524186,31.3136542 L56.1498277,31.3136542 C56.4485119,31.3179635 56.7263997,31.1635576 56.8770197,30.9095965 C57.0276397,30.6556354 57.0276397,30.3414931 56.8770197,30.087532 C56.7263997,29.8335709 56.4485119,29.679165 56.1498277,29.6834742 L48.6524186,29.6834742 Z M48.6437933,37.0547135 C48.3060635,37.0539185 48.0016892,37.2551358 47.8746263,37.5631983 C47.7475635,37.8712608 47.8232795,38.2244227 48.065964,38.4556539 L55.5633732,45.833921 C55.7693617,46.0537277 56.0810705,46.1448412 56.3755247,46.0713155 C56.6699789,45.9977898 56.8998963,45.7714314 56.9745702,45.4815429 C57.0492442,45.1916544 56.9566839,44.8847847 56.7334062,44.6819996 L49.2388716,37.3009069 C49.0825079,37.142971 48.8678142,37.0541488 48.6437933,37.0547135 L48.6437933,37.0547135 Z M15.7434487,39.0867872 L28.2760236,42.6117435 C26.9686985,45.5444735 23.6520706,47.1275594 20.4508907,46.2287144 C17.2479041,45.3294347 15.2799296,42.2594073 15.7434487,39.0867872 Z"></path>
        </g>
    </g>
</svg>