<?xml version="1.0" encoding="UTF-8"?>
<svg width="60px" height="60px" viewBox="0 0 60 60" version="1.1" xmlns="http://www.w3.org/2000/svg" xmlns:xlink="http://www.w3.org/1999/xlink">
    <!-- Generator: Sketch 47.1 (45422) - http://www.bohemiancoding.com/sketch -->
    <title>cake</title>
    <desc>Created with Sketch.</desc>
    <defs></defs>
    <g id="Page-1" stroke="none" stroke-width="1" fill="none" fill-rule="evenodd">
        <g id="cake" fill-rule="nonzero" fill="#222222">
            <g id="noun_268751_cc" transform="translate(10.000000, 7.000000)">
                <g id="Group">
                    <path d="M20.7342857,46.8280488 C17.1614286,46.8280488 13.94,46.4268293 11.8314286,46.0256098 C10.0157143,45.6817073 8.55142857,44.4207317 8.08285714,42.6439024 L3.28,25.7353659 L5.33,25.7353659 L5.44714286,25.7926829 C9.19571429,27.5121951 14.5257143,28.4292683 20.1485714,28.4292683 L20.1485714,28.4292683 C25.7128571,28.3719512 30.5157143,27.5121951 34.9085714,25.7926829 L35.1428571,25.7353659 L37.0171429,25.7353659 L33.7371429,41.8987805 C33.3857143,43.6182927 32.0971429,44.9939024 30.3985714,45.5097561 C27.2357143,46.4841463 23.8385714,46.8280488 20.7342857,46.8280488 Z M4.86142857,26.9390244 L9.25428571,42.3 C9.60571429,43.6182927 10.7185714,44.5353659 12.0657143,44.8219512 C15.99,45.5097561 23.4871429,46.3695122 30.1057143,44.3634146 C31.3942857,43.9621951 32.3314286,42.9304878 32.5657143,41.6695122 L35.5528571,26.9390244 L35.3185714,26.9390244 C30.8085714,28.6585366 25.8885714,29.5182927 20.2071429,29.6329268 L20.2071429,29.6329268 C14.4671429,29.747561 8.96142857,28.7158537 5.09571429,26.9390244 L4.86142857,26.9390244 Z" id="Shape" stroke="#222222"></path>
                    <path d="M20.3828571,29.5182927 C11.4214286,29.5182927 5.03714286,26.9390244 4.92,26.8817073 L4.80285714,26.8243902 L3.69,25.9646341 C1.58142857,24.4170732 0.468571429,22.5829268 0.292857143,20.5768293 C0.0585714286,17.8829268 1.69857143,15.704878 2.28428571,15.0170732 C1.75714286,12.6670732 2.05,10.7182927 3.10428571,9.17073171 C4.33428571,7.39390244 6.26714286,6.82073171 7.08714286,6.64878049 C9.48857143,1.14634146 14.1157143,1.83414634 15.4042857,2.17804878 C17.2785714,0.687804878 19.2114286,0.0573170732 21.1442857,0.229268293 C23.6042857,0.401219512 25.3614286,1.89146341 26.0057143,2.52195122 C27.88,2.06341463 29.52,2.23536585 30.9257143,3.09512195 C33.0928571,4.35609756 34.03,6.76341463 34.3228571,7.73780488 C38.8914286,8.88414634 39.5357143,13.7560976 39.2428571,16.45 C40.6485714,18.5707317 41.0585714,20.6341463 40.5314286,22.5256098 C39.6528571,25.5060976 36.7242857,26.9390244 36.6071429,26.9963415 L36.4314286,26.9390244 L35.26,26.9390244 C29.9885714,28.8878049 24.8928571,29.5182927 20.3828571,29.5182927 Z M5.50571429,25.85 C6.56,26.2512195 20.09,31.295122 34.9671429,25.7926829 L35.2014286,25.7353659 L36.1971429,25.7353659 C36.7242857,25.4487805 38.7742857,24.245122 39.36,22.0670732 C39.8285714,20.4621951 39.4185714,18.6853659 38.13,16.7939024 L37.9542857,16.6219512 L38.0128571,16.3926829 C38.0714286,16.1060976 38.8914286,9.74390244 33.7371429,8.71219512 L33.3271429,8.65487805 L33.2685714,8.25365854 C33.2685714,8.19634146 32.5657143,5.3304878 30.34,4.01219512 C29.1685714,3.32439024 27.7042857,3.2097561 26.0057143,3.66829268 L25.6542857,3.78292683 L25.42,3.49634146 C25.2442857,3.32439024 21.32,-1.08902439 16.0485714,3.26707317 L15.7557143,3.49634146 L15.3457143,3.43902439 C15.17,3.38170732 10.4257143,1.7195122 8.14142857,7.39390244 L8.02428571,7.73780488 L7.61428571,7.73780488 C7.61428571,7.73780488 5.33,8.08170732 4.1,9.85853659 C3.22142857,11.1195122 2.98714286,12.8963415 3.51428571,15.0170732 L3.57285714,15.3036585 L3.33857143,15.5329268 C3.33857143,15.5329268 1.23,17.7682927 1.46428571,20.4621951 C1.58142857,22.1243902 2.57714286,23.6719512 4.39285714,24.9902439 L5.50571429,25.85 Z" id="Shape" stroke="#222222"></path>
                    <ellipse id="Oval" cx="16.4" cy="16.5073171" rx="1.17142857" ry="1.14634146"></ellipse>
                    <ellipse id="Oval" cx="20.5" cy="23.6146341" rx="1.17142857" ry="1.14634146"></ellipse>
                    <ellipse id="Oval" cx="24.7757143" cy="16.5073171" rx="1.17142857" ry="1.14634146"></ellipse>
                    <ellipse id="Oval" cx="22.4328571" cy="9.17073171" rx="1.17142857" ry="1.14634146"></ellipse>
                    <ellipse id="Oval" cx="30.8671429" cy="13.7560976" rx="1.17142857" ry="1.14634146"></ellipse>
                    <ellipse id="Oval" cx="32.4485714" cy="21.3219512" rx="1.17142857" ry="1.14634146"></ellipse>
                    <ellipse id="Oval" cx="11.5971429" cy="11.4634146" rx="1.17142857" ry="1.14634146"></ellipse>
                    <ellipse id="Oval" cx="8.49285714" cy="20.5768293" rx="1.17142857" ry="1.14634146"></ellipse>
                    <rect id="Rectangle-path" stroke="#222222" transform="translate(13.574379, 36.792938) rotate(82.605644) translate(-13.574379, -36.792938) " x="4.55423214" y="36.1910993" width="18.0402939" height="1.20367814"></rect>
                    <rect id="Rectangle-path" stroke="#222222" transform="translate(27.670467, 36.592443) rotate(7.388674) translate(-27.670467, -36.592443) " x="27.055465" y="27.7369251" width="1.23000421" height="17.7110363"></rect>
                    <rect id="Rectangle-path" stroke="#222222" transform="translate(20.327623, 37.606544) rotate(88.937611) translate(-20.327623, -37.606544) " x="11.5421559" y="37.0047313" width="17.5709348" height="1.20362471"></rect>
                </g>
            </g>
        </g>
    </g>
</svg>