<?xml version="1.0" encoding="UTF-8"?>
<svg width="60px" height="60px" viewBox="0 0 60 60" version="1.1" xmlns="http://www.w3.org/2000/svg" xmlns:xlink="http://www.w3.org/1999/xlink">
    <!-- Generator: Sketch 47.1 (45422) - http://www.bohemiancoding.com/sketch -->
    <title>fish</title>
    <desc>Created with Sketch.</desc>
    <defs></defs>
    <g id="Page-1" stroke="none" stroke-width="1" fill="none" fill-rule="evenodd">
        <g id="fish" fill="#222222">
            <g id="noun_766255_cc" transform="translate(0.000000, 4.000000)">
                <g id="Group" transform="translate(0.000000, 1.275600)">
                    <path d="M22.2095057,10.0156 C19.7110268,10.4208 17.3143093,11.2976 15.0880208,12.3868 C12.5490174,13.629 10.1278073,15.2046 8.00878901,17.1094 C5.58602599,19.287 2.15488276,24.121 2.15488276,24.121 C1.90249405,24.4723882 1.90249405,24.9494118 2.15488276,25.3008 C2.15488276,25.3008 5.58600141,30.1388 8.00878901,32.3164 C10.1278072,34.2212 12.5490174,35.7968 15.0880208,37.039 C17.3143965,38.1282 19.7112982,39.0044 22.2095057,39.4102 C24.5495126,39.7898 27.017046,39.8692 29.4039716,39.4102 C32.8164647,38.7426 35.9064678,37.1412 38.8224602,35.5976 C41.4226571,34.2208 45.8018219,30.9492 45.8018219,30.9492 C46.1016886,30.7448464 46.2673663,30.3898517 46.2334361,30.024388 C46.1995059,29.6589242 45.9714217,29.3417367 45.6392443,29.1980691 C45.3070668,29.0544014 44.9241907,29.1073471 44.6417974,29.336 C44.6417974,29.336 40.1649619,32.6274 37.9121099,33.8202 C35.0096403,35.3568 32.0810494,36.8526 29.0313807,37.4492 C26.934975,37.8592 24.6901273,37.7934 22.5206383,37.4492 C20.2653967,37.083 18.0402786,36.2772 15.9407553,35.25 C13.5473218,34.079 11.2759459,32.5984 9.3109375,30.832 C7.48689094,29.1926 4.77414528,25.4576 4.2367839,24.7266 C4.77414351,23.9956 7.48686852,20.2606 9.3109375,18.621 C11.2759459,16.8546 13.5473218,15.374 15.9407553,14.2032 C18.0403651,13.1758 20.2656681,12.3734 22.5206383,12.0078 C24.6736702,11.6582 26.9163861,11.6452 29.058269,12.0078 C32.1085296,12.5182 35.0993596,13.6668 37.9351553,15.0704 C40.1724313,16.1776 44.6341136,19.5392 44.6341136,19.5392 C44.9154409,19.7534689 45.2878091,19.7988174 45.6109318,19.6581608 C45.9340546,19.5175042 46.1588342,19.2122151 46.2005871,18.8573081 C46.24234,18.5024011 46.094722,18.1518037 45.8133466,17.9376 C45.8133466,17.9376 41.4798812,14.602 38.7955719,13.2736 C35.850817,11.816 32.6890877,10.5894 29.3770833,10.0352 C27.0131874,9.6394 24.5659696,9.6528 22.2095057,10.0352 L22.2095057,10.0156 Z" id="Shape"></path>
                    <path d="M55.9693352,12.7266 C55.8449746,12.7372414 55.7237421,12.7718574 55.6121099,12.8286 L47.272981,17.0708 C41.1250984,20.1966 41.1251338,29.2532 47.272981,32.3794 L55.6121099,36.6176 C55.9717985,36.7997987 56.404306,36.7411269 56.7044551,36.4694178 C57.0046043,36.1977088 57.1120083,35.7676274 56.9757159,35.3832 L55.350911,30.8402 C54.9976072,29.8528 54.7323687,28.844 54.5557935,27.8208 C54.5084007,27.4568623 54.268745,27.1485848 53.9314677,27.017708 C53.5941905,26.8868312 53.2135142,26.9543956 52.9397702,27.1937195 C52.6660261,27.4330435 52.5432228,27.8056521 52.619856,28.1644 C52.8161294,29.302 53.1103466,30.4256 53.5033201,31.5238 L54.2830719,33.7074 L48.1526042,30.5902 C43.3435102,28.1448 43.3435456,21.305 48.1526042,18.8598 L54.2830719,15.7386 L53.5033201,17.9262 C53.1106318,19.0242 52.8162749,20.148 52.619856,21.2856 C52.5433573,21.6442748 52.6661895,22.0167462 52.9398683,22.255993 C53.2135472,22.4952399 53.5940999,22.5628216 53.9313155,22.4320625 C54.2685311,22.3013034 54.508228,21.9932129 54.5557935,21.6294 C54.7325379,20.6056 54.9977645,19.5972 55.350911,18.6098 L56.9757159,14.0668 C57.0909444,13.7461074 57.0373339,13.387793 56.8335284,13.1164655 C56.6297228,12.8451381 56.3038871,12.6982939 55.9693352,12.727 L55.9693352,12.7266 Z" id="Shape"></path>
                    <path d="M34.5395833,0.8204 C31.2279055,0.3838 28.2398013,1.48 25.8777992,2.9376 C25.8764881,2.93759733 25.875177,2.93759733 25.8738659,2.9376 C24.4725372,3.8098 23.2182798,4.887 22.1978886,6.1094 C20.9864613,7.5604 19.7664435,10.2892 19.7664435,10.2892 C19.5330821,10.7886294 19.742025,11.3858802 20.2331306,11.623197 C20.7242362,11.8605138 21.3115328,11.6480294 21.5448943,11.1486 C21.5448943,11.1486 22.9089074,8.349 23.695936,7.4064 C23.6972471,7.40640267 23.6985582,7.40640267 23.6998693,7.4064 C24.5740841,6.359 25.6686855,5.409 26.8957026,4.6446 L26.899636,4.6446 C28.7207575,3.5216 30.9002706,2.857 33.2183216,2.8868 C32.4060607,5.9676 32.2305613,8.8968 33.498725,12.086 C33.6304531,12.4174681 33.9260694,12.6522853 34.2742108,12.7019924 C34.6223521,12.7516995 34.9701233,12.6087443 35.1865136,12.32698 C35.4029039,12.0452158 35.4550358,11.6674528 35.3232705,11.336 C34.033676,8.093 34.2217405,5.5064 35.3425438,2.1328 C35.4369718,1.84934005 35.4016053,1.53777188 35.2461554,1.28364546 C35.0907055,1.02951905 34.8315122,0.859546994 34.5397446,0.8204 L34.5395833,0.8204 Z" id="Shape"></path>
                    <path d="M36.3180341,34.7266 C35.9949276,34.7488437 35.703301,34.9314297 35.5382803,35.2148 C33.4471905,38.7012 32.0970718,42.515 32.9263031,46.5508 C30.678173,46.5788 28.5618233,45.8656 26.7766269,44.6484 L26.7726935,44.6484 C25.5665054,43.8182 24.4968531,42.7978 23.6229549,41.6406 C22.8762313,40.6516 21.556417,37.7032 21.556419,37.7032 C21.4223511,37.3656727 21.1185307,37.1288829 20.7631874,37.0849756 C20.407844,37.0410683 20.0571044,37.1969787 19.8474563,37.4920354 C19.6378082,37.7870921 19.6023656,38.1746907 19.7549208,38.504 C19.7549208,38.504 20.9297524,41.358 22.0634492,42.8594 C23.0702921,44.1926 24.2956021,45.3564 25.6741273,46.3046 C25.6754384,46.3046027 25.6767495,46.3046027 25.6780606,46.3046 C28.0048751,47.8918 30.9647281,49.0924 34.2514981,48.6132 C34.5421305,48.5712001 34.799118,48.3993623 34.9522212,48.144653 C35.1053243,47.8899437 35.1385337,47.5789969 35.0427727,47.2968 C33.7475575,43.4808 35.0073334,39.9378 37.2168617,36.2538 C37.414332,35.9353181 37.4191816,35.53104 37.2294099,35.207754 C37.0396382,34.884468 36.6874078,34.6969647 36.3180341,34.7226 L36.3180341,34.7266 Z" id="Shape"></path>
                    <path d="M11.8000889,24.7244 C11.8000889,25.2766798 12.2403347,25.7243931 12.7834098,25.7244 C13.326485,25.7243931 13.7667308,25.2766798 13.7667308,24.7244 C13.7667308,24.1721202 13.326485,23.7244069 12.7834098,23.7244 C12.2403347,23.7244069 11.8000889,24.1721202 11.8000889,24.7244 L11.8000889,24.7244 Z" id="Shape" fill-rule="nonzero"></path>
                    <path d="M18.621875,15.7266 C18.2408352,15.7515991 17.9084663,15.9986375 17.769351,16.3602521 C17.6302356,16.7218666 17.7095226,17.1326855 17.9727216,17.414 C17.9727216,17.414 18.4491859,17.9396 19.0059886,18.6172 C19.5627932,19.2948 20.2015469,20.157 20.4348958,20.6172 C21.1264565,21.982 21.6333333,23.4052 21.6333333,24.7226 C21.6333333,26.0406 21.1269206,27.4674 20.4348958,28.832 C20.2013876,29.2924 19.5627775,30.1544 19.0059886,30.832 C18.4492017,31.5096 17.9727216,32.0352 17.9727216,32.0352 C17.7161072,32.2937161 17.6195026,32.6744872 17.7210966,33.0269903 C17.8226906,33.3794935 18.1061304,33.6469886 18.459369,33.7237319 C18.8126076,33.8004752 19.1787866,33.6741139 19.4131515,33.3946 C19.4131515,33.3946 19.9232695,32.834 20.5155606,32.1132 C21.1078498,31.3924 21.7798539,30.544 22.1826174,29.75 C22.9458395,28.245 23.6,26.5424 23.6,24.7226 C23.6,22.9028 22.9449663,21.2036 22.1826174,19.6992 C21.7799188,18.905 21.1078911,18.0568 20.5155606,17.336 C19.9232282,16.6152 19.4131515,16.0546 19.4131515,16.0546 C19.2123198,15.8283609 18.9210015,15.7076036 18.621875,15.7266 L18.621875,15.7266 Z" id="Shape"></path>
                    <path d="M52.3133491,24.7244 C52.313349,25.2766801 52.7535952,25.7243934 53.2966706,25.7244 C53.8397453,25.7243923 54.2799902,25.2766793 54.2799902,24.7244 C54.2799902,24.1721207 53.8397453,23.7244077 53.2966706,23.7244 C52.7535952,23.7244066 52.313349,24.1721199 52.3133491,24.7244 L52.3133491,24.7244 Z" id="Shape" fill-rule="nonzero"></path>
                </g>
            </g>
        </g>
    </g>
</svg>