<?xml version="1.0" encoding="UTF-8"?>
<svg width="60px" height="60px" viewBox="0 0 60 60" version="1.1" xmlns="http://www.w3.org/2000/svg" xmlns:xlink="http://www.w3.org/1999/xlink">
    <!-- Generator: Sketch 47.1 (45422) - http://www.bohemiancoding.com/sketch -->
    <title>frut</title>
    <desc>Created with Sketch.</desc>
    <defs></defs>
    <g id="Page-1" stroke="none" stroke-width="1" fill="none" fill-rule="evenodd">
        <g id="frut" fill-rule="nonzero" fill="#222222">
            <g id="noun_65240_cc" transform="translate(13.000000, 3.000000)">
                <path d="M26.6513077,26.0361047 C24.7766538,24.1565116 22.5364615,21.2165698 21.8434615,15.1230814 L21.8072885,14.7687791 C21.549,12.0053488 21.0241731,10.265814 20.1014423,9.28668605 C21.0508269,8.8422093 22.0712885,8.10994186 23.0181346,7.15511628 C24.9936923,5.16424419 26.4755192,2.37203488 25.0603269,0.944593023 C24.8096538,0.693255814 24.3578077,0.393953488 23.6216538,0.393953488 C22.3067308,0.393953488 20.4961731,1.39354651 18.8988462,3.00389535 C18.6443654,3.26034884 18.3987692,3.53023256 18.1658654,3.80906977 L18.1658654,3.17465116 C18.1658654,2.65790698 17.7501923,2.23901163 17.2374231,2.23901163 C16.7246538,2.23901163 16.3089808,2.65790698 16.3089808,3.17465116 L16.3089808,7.51901163 C16.2956538,7.67633721 16.2962885,7.82854651 16.3089808,7.9769186 L16.3089808,8.30819767 C14.8728462,8.56145349 12.8408077,9.56488372 12.4587692,13.1603488 C11.6134615,21.1251163 9.39103846,23.1876163 7.03788462,25.3709884 C6.76690385,25.6223256 6.49528846,25.8743023 6.22557692,26.134593 C4.05138462,28.2309884 1.29778846,32.0822674 0.693634615,36.0384302 C-0.642230769,44.8262791 5.36440385,53.0718023 14.0840192,54.4180233 C14.8925192,54.5427326 15.7149808,54.6060465 16.5279231,54.6060465 C16.5285577,54.6060465 16.5285577,54.6060465 16.5285577,54.6060465 C24.34575,54.6060465 31.1355,48.7248837 32.3228654,40.9251163 C33.1059808,35.7743023 31.0917115,30.4872674 26.6513077,26.0361047 Z M20.2118654,4.32709302 C21.5553462,2.97383721 22.9451538,2.26523256 23.6222885,2.26523256 C23.6882885,2.26523256 23.7263654,2.27226744 23.7415962,2.2697093 C23.8520192,2.60162791 23.4179423,4.10709302 21.70575,5.83255814 C20.3629038,7.18581395 18.9737308,7.8944186 18.2965962,7.8944186 C18.24075,7.8944186 18.2039423,7.88930233 18.1861731,7.88930233 C18.1817308,7.88930233 18.1791923,7.88930233 18.1766538,7.88994186 C18.1658654,7.85988372 18.1658654,7.80936047 18.1652308,7.75947674 L18.1652308,7.68912791 C18.2083846,7.14232558 18.7306731,5.81976744 20.2118654,4.32709302 Z M30.4875577,40.6418023 C29.4385385,47.5366279 23.4369808,52.735407 16.5279231,52.7347674 C15.8089038,52.7347674 15.0816346,52.6784884 14.3651538,52.5678488 C6.65711538,51.378314 1.34728846,44.0895349 2.52830769,36.3223837 C3.09819231,32.5875 5.92667308,29.0112209 7.50876923,27.4865698 C7.77023077,27.234593 8.03296154,26.9909302 8.29505769,26.7472674 C10.7973462,24.4251163 13.3853077,22.0236628 14.3042308,13.3592442 C14.5371346,11.1662791 15.4846154,10.1001744 17.20125,10.1001744 C17.2037885,10.1001744 17.2056923,10.1001744 17.2088654,10.1001744 C17.2183846,10.1001744 17.2266346,10.1027326 17.2367885,10.1027326 C17.2412308,10.1027326 17.2456731,10.1014535 17.2501154,10.1014535 C17.6194615,10.1059302 17.9247115,10.1628488 18.0763846,10.1973837 C18.5536154,10.3073837 19.5455192,10.5369767 19.9586538,14.942093 L19.9986346,15.3290116 C20.757,22.0063953 23.2529423,25.2673837 25.3427308,27.3618605 C28.1781923,30.2058721 31.3734808,34.8169186 30.4875577,40.6418023 Z" id="Shape"></path>
                <ellipse id="Oval" cx="26.5669038" cy="36.5417442" rx="1" ry="1"></ellipse>
                <ellipse id="Oval" cx="26.5669038" cy="43.2728488" rx="1" ry="1"></ellipse>
                <ellipse id="Oval" cx="20.8414038" cy="47.8877326" rx="1" ry="1"></ellipse>
                <ellipse id="Oval" cx="23.9979808" cy="46.3272674" rx="1" ry="1"></ellipse>
                <ellipse id="Oval" cx="27.8361346" cy="39.9076163" rx="1" ry="1"></ellipse>
            </g>
        </g>
    </g>
</svg>