<?xml version="1.0" encoding="UTF-8"?>
<svg width="60px" height="60px" viewBox="0 0 60 60" version="1.1" xmlns="http://www.w3.org/2000/svg" xmlns:xlink="http://www.w3.org/1999/xlink">
    <!-- Generator: Sketch 47.1 (45422) - http://www.bohemiancoding.com/sketch -->
    <title>milk</title>
    <desc>Created with Sketch.</desc>
    <defs></defs>
    <g id="Page-1" stroke="none" stroke-width="1" fill="none" fill-rule="evenodd">
        <g id="milk">
            <g id="noun_837350_cc" transform="translate(14.000000, 1.000000)">
                <g id="Group">
                    <path d="M22.5240833,27.4075778 C19.6856458,27.4075778 16.8187917,26.9345556 13.6684167,25.9833556 C9.8560625,24.8330222 5.65039583,25.1919778 2.0866875,26.9577556 L2.0866875,51.6631778 C2.0866875,54.1256 4.0939375,56.1285333 6.56166667,56.1285333 L24.4383333,56.1285333 C26.9060625,56.1285333 28.9139583,54.1256 28.9139583,51.6631778 L28.9010417,26.6129778 C26.7239375,27.1311111 24.6295,27.4075778 22.5240833,27.4075778 Z" id="Shape"></path>
                    <path d="M7.19264583,5.61568889 C7.19264583,6.3278 7.6628125,6.92906667 8.30670833,7.14366667 L8.30025,7.24355556 L8.327375,7.2442 L8.327375,7.20295556 L8.5114375,7.20295556 L22.4892083,7.20295556 L22.6978125,7.20295556 L22.6939375,7.14431111 C23.3378333,6.92971111 23.808,6.32844444 23.808,5.61633333 L23.808,5.38948889 C23.8725833,5.22644444 23.90875,5.05051111 23.90875,4.86684444 L23.90875,3.32662222 C23.90875,2.52364444 23.2545208,1.87082222 22.4504583,1.87082222 L22.308375,1.87082222 C22.2676875,1.8676 22.2289375,1.85857778 22.1876042,1.85857778 L8.8136875,1.85857778 C8.77235417,1.85857778 8.73360417,1.8676 8.69291667,1.87082222 L8.55083333,1.87082222 C7.74677083,1.87082222 7.09254167,2.52364444 7.09254167,3.32662222 L7.09254167,4.86684444 C7.09254167,5.04986667 7.12870833,5.22644444 7.19329167,5.38948889 L7.19329167,5.61568889 L7.19264583,5.61568889 Z" id="Shape"></path>
                    <path d="M28.3598333,19.0156222 C27.9917083,18.2977111 27.3820417,17.6867778 26.7362083,17.0404 C26.5030625,16.8071111 26.2705625,16.5738222 26.0471042,16.3347333 C24.2407083,14.3891556 23.0478542,11.8113778 22.6241875,9.07313333 L8.3758125,9.07313333 C7.95214583,11.8113778 6.75929167,14.3891556 4.95354167,16.3334444 C4.7294375,16.5738222 4.4969375,16.8071111 4.26314583,17.0410444 C3.61795833,17.6874222 3.00764583,18.2977111 2.64016667,19.0156222 C2.10541667,20.0525333 2.07247917,21.3414222 2.08604167,22.7978667 C2.08604167,23.3823778 2.08927083,23.9739778 2.09185417,24.5791111 C2.0925,24.6822222 2.0925,24.7911333 2.09314583,24.8948889 C5.8919375,23.2605778 10.241625,22.9950667 14.2109167,24.1930889 C19.5874792,25.8158 23.9035833,25.9691778 28.9068542,24.6970444 C28.9068542,24.6454889 28.9075,24.5913556 28.9075,24.5398 C28.9107292,23.9475556 28.9133125,23.3694889 28.9133125,22.8062444 C28.9262292,21.3414222 28.8939375,20.0512444 28.3604792,19.0182 L28.3598333,19.0156222 Z" id="Shape"></path>
                    <path d="M28.0640417,15.7192889 C27.84575,15.5008222 27.6281042,15.283 27.4207917,15.0613111 C25.6085833,13.1092889 24.4964583,10.4071333 24.3369375,7.59477778 C25.214625,6.99093333 25.7823125,5.98366667 25.7823125,4.86684444 L25.7823125,3.32662222 C25.7829583,1.49188889 24.2878542,0 22.4491667,0 L8.55083333,0 C6.71279167,0 5.2176875,1.49188889 5.2176875,3.32662222 L5.2176875,4.86684444 C5.2176875,5.98431111 5.785375,6.99157778 6.6630625,7.59477778 C6.50354167,10.4071333 5.39141667,13.1092889 3.5805,15.0600222 C3.37189583,15.2836444 3.15425,15.5014667 2.93595833,15.7199333 C2.21714583,16.4397778 1.47314583,17.1841111 0.973270833,18.1610889 C0.243479167,19.575 0.196333333,21.1049111 0.212479167,22.8062444 C0.212479167,23.3856 0.215708333,23.9797778 0.218291667,24.5881333 C0.221520833,25.1945556 0.22475,25.8138667 0.22475,26.4467111 C0.211833333,26.5395111 0.211833333,26.6162 0.211833333,26.6626 L0.211833333,51.6638222 C0.211833333,55.158 3.06060417,58 6.56166667,58 L24.4383333,58 C27.9400417,58 30.7888125,55.1573556 30.7888125,51.6638222 L30.7888125,26.8411111 L30.7758958,26.2604667 C30.7765417,25.6785333 30.7797708,25.1075556 30.7823542,24.5494667 C30.7855833,23.954 30.7881667,23.3720667 30.7881667,22.8146222 C30.8036667,21.1055556 30.7565208,19.575 30.027375,18.1623778 C29.5262083,17.1834667 28.7828542,16.4391333 28.0640417,15.7192889 Z M7.09189583,3.32662222 C7.09189583,2.52364444 7.746125,1.87082222 8.5501875,1.87082222 L8.69227083,1.87082222 C8.73295833,1.8676 8.77170833,1.85857778 8.81304167,1.85857778 L22.1863125,1.85857778 C22.2276458,1.85857778 22.2663958,1.8676 22.3070833,1.87082222 L22.4491667,1.87082222 C23.2532292,1.87082222 23.9074583,2.52364444 23.9074583,3.32662222 L23.9074583,4.86684444 C23.9074583,5.04986667 23.8712917,5.22644444 23.8067083,5.38948889 L23.8067083,5.61633333 C23.8067083,6.32844444 23.3365417,6.92971111 22.6926458,7.14431111 L22.6965208,7.20295556 L22.4879167,7.20295556 L8.5114375,7.20295556 L8.327375,7.20295556 L8.327375,7.2442 L8.30025,7.24355556 L8.30670833,7.14366667 C7.6628125,6.92906667 7.19264583,6.3278 7.19264583,5.61568889 L7.19264583,5.38884444 C7.1280625,5.2258 7.09189583,5.04986667 7.09189583,4.8662 L7.09189583,3.32662222 Z M24.4383333,56.1291778 L6.56166667,56.1291778 C4.0939375,56.1291778 2.0866875,54.1262444 2.0866875,51.6638222 L2.0866875,26.9584 C5.65104167,25.1919778 9.8560625,24.8330222 13.6684167,25.984 C16.8187917,26.9352 19.6856458,27.4082222 22.5240833,27.4082222 C24.6288542,27.4082222 26.7239375,27.1324 28.9010417,26.6142667 L28.9139583,51.6644667 C28.9139583,54.1256 26.9060625,56.1291778 24.4383333,56.1291778 Z M28.9139583,22.8062444 C28.9139583,23.3694889 28.9107292,23.9475556 28.9081458,24.5398 C28.9081458,24.5913556 28.9075,24.6454889 28.9075,24.6970444 C23.904875,25.9691778 19.5887708,25.8164444 14.2115625,24.1930889 C10.2422708,22.9944222 5.89258333,23.2605778 2.09379167,24.8948889 C2.09314583,24.7911333 2.09314583,24.6822222 2.0925,24.5791111 C2.08927083,23.9739778 2.0866875,23.3823778 2.0866875,22.7978667 C2.073125,21.3414222 2.1060625,20.0525333 2.6408125,19.0156222 C3.00829167,18.2977111 3.61860417,17.6874222 4.26379167,17.0410444 C4.49758333,16.8071111 4.73008333,16.5738222 4.9541875,16.3334444 C6.75929167,14.3891556 7.95279167,11.8113778 8.37645833,9.07313333 L22.6248333,9.07313333 C23.0485,11.8113778 24.2413542,14.3891556 26.04775,16.3347333 C26.2705625,16.5731778 26.5037083,16.8064667 26.7368542,17.0404 C27.3826875,17.6867778 27.9923542,18.2977111 28.3604792,19.0156222 L28.3617708,19.0182 C28.8939375,20.0512444 28.926875,21.3407778 28.9139583,22.8062444 Z" id="Shape" fill="#222222" fill-rule="nonzero"></path>
                </g>
            </g>
        </g>
    </g>
</svg>