<?xml version="1.0" encoding="UTF-8"?>
<svg width="60px" height="60px" viewBox="0 0 60 60" version="1.1" xmlns="http://www.w3.org/2000/svg" xmlns:xlink="http://www.w3.org/1999/xlink">
    <!-- Generator: Sketch 47.1 (45422) - http://www.bohemiancoding.com/sketch -->
    <title>place</title>
    <desc>Created with Sketch.</desc>
    <defs></defs>
    <g id="Page-1" stroke="none" stroke-width="1" fill="none" fill-rule="evenodd">
        <g id="place" fill-rule="nonzero" fill="#222222">
            <g transform="translate(12.000000, 6.000000)" id="Shape">
                <path d="M32.2295622,8.2111917 C27.256331,0.300376367 17.104011,-2.31866674 9.0309058,2.22652206 C0.957800588,6.77171086 -2.26096316,16.9187247 1.67583873,25.4130537 C2.0222854,26.1404778 2.41965332,26.8415996 2.86486912,27.5109963 L16.6476613,48.5411283 C16.8359705,48.8278618 17.1524057,49 17.4911881,49 C17.8299704,49 18.1464056,48.8278618 18.3347149,48.5411283 L32.0303529,27.6250839 C32.5450988,26.8592267 33.0009038,26.053988 33.3936914,25.2165697 C35.8930304,19.7194471 35.4537253,13.3021621 32.2295622,8.2111917 L32.2295622,8.2111917 Z M31.6941873,24.4433098 C31.3345081,25.1933283 30.9182407,25.9138172 30.4491293,26.5982962 L17.4943007,46.4051565 L4.42119163,26.4525177 C4.02489618,25.860284 3.67120639,25.2396333 3.36289233,24.5954265 C0.277202403,17.9303202 2.0906582,9.98008304 7.74556221,5.38168836 C13.4004662,0.78329369 21.4167819,0.740261859 27.1189956,5.27769117 C32.8212094,9.81512049 34.7169025,17.7454468 31.7004125,24.4433098 L31.6941873,24.4433098 Z"></path>
                <path d="M18,11 C14.6862915,11 12,13.6862915 12,17 C12,20.3137085 14.6862915,23 18,23 C21.3137085,23 24,20.3137085 24,17 C23.9965335,13.6877284 21.3122716,11.0034665 18,11 L18,11 Z M18,21.1069182 C15.7283382,21.1069182 13.8867925,19.2653725 13.8867925,16.9937107 C13.8867925,14.7220489 15.7283382,12.8805031 18,12.8805031 C20.2716618,12.8805031 22.1132075,14.7220489 22.1132075,16.9937107 C22.1132075,18.0846012 21.679853,19.1308116 20.9084769,19.9021876 C20.1371009,20.6735637 19.0908905,21.1069182 18,21.1069182 L18,21.1069182 Z"></path>
            </g>
        </g>
    </g>
</svg>