<?xml version="1.0" encoding="UTF-8"?>
<svg width="60px" height="60px" viewBox="0 0 60 60" version="1.1" xmlns="http://www.w3.org/2000/svg" xmlns:xlink="http://www.w3.org/1999/xlink">
    <!-- Generator: Sketch 47.1 (45422) - http://www.bohemiancoding.com/sketch -->
    <title>ready</title>
    <desc>Created with Sketch.</desc>
    <defs></defs>
    <g id="Page-1" stroke="none" stroke-width="1" fill="none" fill-rule="evenodd">
        <g id="ready" fill="#222222" fill-rule="nonzero">
            <path d="M50.9,15.2 C52.58708,15.2 53.96,16.57292 53.96,18.26 C53.96,18.82304 54.41594,19.28 54.98,19.28 C55.54406,19.28 56,18.82304 56,18.26 L56,12.14 C56,11.8187 55.84904,11.51678 55.592,11.324 L47.432,5.204 C47.25554,5.0714 47.04134,5 46.82,5 L14.18,5 C13.95968,5 13.74446,5.0714 13.568,5.204 L5.408,11.324 C5.15096,11.51678 5,11.8187 5,12.14 L5,18.2549 C5,18.81794 5.45594,19.2749 6.02,19.2749 L6.02,19.2749 C6.58304,19.2749 7.04,18.81896 7.04,18.25592 C7.04204,16.57088 8.41496,15.2 10.1,15.2 C11.78708,15.2 13.16,16.57292 13.16,18.26 L13.16,35.6 L6.02,35.6 C5.45696,35.6 5,36.05594 5,36.62 L5,48.86 C5,49.42406 5.45696,49.88 6.02,49.88 L9.1616,49.88 C9.65936,53.33474 12.6296,56 16.22,56 C19.8104,56 22.78064,53.33474 23.2784,49.88 L37.7216,49.88 C38.21936,53.33474 41.19062,56 44.78,56 C48.36938,56 51.34064,53.33474 51.8384,49.88 L54.98,49.88 C55.54406,49.88 56,49.42406 56,48.86 L56,36.62 C56,36.05594 55.54406,35.6 54.98,35.6 L47.84,35.6 L47.84,18.26 C47.84,16.57292 49.21292,15.2 50.9,15.2 Z M10.1,13.16 C8.95352,13.16 7.89374,13.54148 7.04,14.18204 L7.04,12.65 L14.51966,7.04 L46.47932,7.04 L53.96,12.65 L53.96,14.18204 C53.10728,13.54148 52.0475,13.16 50.9,13.16 C49.23332,13.16 47.75126,13.96376 46.82,15.20306 C45.88874,13.96376 44.40668,13.16 42.74,13.16 C41.07332,13.16 39.59126,13.96376 38.66,15.20306 C37.72874,13.96376 36.24668,13.16 34.58,13.16 C32.91332,13.16 31.43126,13.96376 30.5,15.20306 C29.56874,13.96376 28.08668,13.16 26.42,13.16 C24.75332,13.16 23.27126,13.96376 22.34,15.20306 C21.40874,13.96376 19.92668,13.16 18.26,13.16 C16.59332,13.16 15.11126,13.96376 14.18,15.20306 C13.24874,13.96376 11.76668,13.16 10.1,13.16 Z M16.22,53.96 C13.40786,53.96 11.12,51.67214 11.12,48.86 C11.12,46.04786 13.40786,43.76 16.22,43.76 C19.03214,43.76 21.32,46.04786 21.32,48.86 C21.32,51.67214 19.03214,53.96 16.22,53.96 Z M44.78,53.96 C41.96786,53.96 39.68,51.67214 39.68,48.86 C39.68,46.04786 41.96786,43.76 44.78,43.76 C47.59214,43.76 49.88,46.04786 49.88,48.86 C49.88,51.67214 47.59214,53.96 44.78,53.96 Z M53.96,47.84 L51.8384,47.84 C51.34064,44.38526 48.36938,41.72 44.78,41.72 C41.19062,41.72 38.21936,44.38526 37.7216,47.84 L23.2784,47.84 C22.78064,44.38526 19.8104,41.72 16.22,41.72 C12.6296,41.72 9.65936,44.38526 9.1616,47.84 L7.04,47.84 L7.04,37.64 L53.96,37.64 L53.96,47.84 Z M15.2,35.6 L15.2,18.26 C15.2,16.57292 16.57292,15.2 18.26,15.2 C19.94708,15.2 21.32,16.57292 21.32,18.26 C21.32,18.82304 21.77696,19.28 22.34,19.28 C22.90304,19.28 23.36,18.82304 23.36,18.26 C23.36,16.57292 24.73292,15.2 26.42,15.2 C28.10708,15.2 29.48,16.57292 29.48,18.26 C29.48,18.82304 29.93696,19.28 30.5,19.28 C31.06304,19.28 31.52,18.82304 31.52,18.26 C31.52,16.57292 32.89292,15.2 34.58,15.2 C36.26708,15.2 37.64,16.57292 37.64,18.26 C37.64,18.82304 38.09594,19.28 38.66,19.28 C39.22406,19.28 39.68,18.82304 39.68,18.26 C39.68,16.57292 41.05292,15.2 42.74,15.2 C44.42708,15.2 45.8,16.57292 45.8,18.26 L45.8,35.6 L15.2,35.6 Z"></path>
        </g>
    </g>
</svg>