<?xml version="1.0" encoding="UTF-8"?>
<svg width="60px" height="60px" viewBox="0 0 60 60" version="1.1" xmlns="http://www.w3.org/2000/svg" xmlns:xlink="http://www.w3.org/1999/xlink">
    <!-- Generator: Sketch 47.1 (45422) - http://www.bohemiancoding.com/sketch -->
    <title>storage</title>
    <desc>Created with Sketch.</desc>
    <defs></defs>
    <g id="Page-1" stroke="none" stroke-width="1" fill="none" fill-rule="evenodd">
        <g id="storage" stroke="#222222" stroke-width="0.91" fill="#222222" fill-rule="nonzero">
            <g transform="translate(9.000000, 10.000000)" id="Shape">
                <path d="M41.5434783,0 L0.456521739,0 C0.182608696,0 0,0.161073826 0,0.402684564 L0,5.59731544 C0,5.83892617 0.182608696,6 0.456521739,6 L41.5434783,6 C41.8173913,6 42,5.83892617 42,5.59731544 L42,0.402684564 C42,0.161073826 41.8173913,0 41.5434783,0 Z M41.0869565,5.19463087 L0.913043478,5.19463087 L0.913043478,0.805369128 L41.0869565,0.805369128 L41.0869565,5.19463087 Z"></path>
                <path d="M38.5846017,8 L3.45504606,8 C3.18201842,8 3,8.17837838 3,8.44594595 L3,40.5540541 C3,40.8216216 3.18201842,41 3.45504606,41 L38.5390971,41 C38.8121247,41 38.9941431,40.8216216 38.9941431,40.5540541 L38.9941431,8.44594595 C39.0396477,8.22297297 38.8121247,8 38.5846017,8 Z M38.1295556,40.1081081 L3.91009211,40.1081081 L3.91009211,8.89189189 L38.084051,8.89189189 L38.084051,40.1081081 L38.1295556,40.1081081 Z"></path>
                <path d="M10.4680851,19 L31.5319149,19 C31.812766,19 32,18.8275862 32,18.5689655 L32,14.4310345 C32,14.1724138 31.812766,14 31.5319149,14 L10.4680851,14 C10.187234,14 10,14.1724138 10,14.4310345 L10,18.5689655 C10,18.7844828 10.187234,19 10.4680851,19 Z M10.9361702,14.8189655 L31.0638298,14.8189655 L31.0638298,18.0948276 L10.9361702,18.0948276 L10.9361702,14.8189655 Z"></path>
            </g>
        </g>
    </g>
</svg>