<?xml version="1.0" encoding="UTF-8"?>
<svg width="60px" height="60px" viewBox="0 0 60 60" version="1.1" xmlns="http://www.w3.org/2000/svg" xmlns:xlink="http://www.w3.org/1999/xlink">
    <!-- Generator: Sketch 47.1 (45422) - http://www.bohemiancoding.com/sketch -->
    <title>tea</title>
    <desc>Created with Sketch.</desc>
    <defs></defs>
    <g id="Page-1" stroke="none" stroke-width="1" fill="none" fill-rule="evenodd">
        <g id="tea" fill-rule="nonzero" fill="#222222">
            <g id="noun_516751_cc" transform="translate(13.000000, 5.000000)">
                <path d="M6.59884211,39.4901163 C5.96547368,43.4662791 5.87863158,46.702907 5.82884211,48.6197674 C5.81610526,49.1203488 6.20978947,49.5372093 6.70884211,49.5511628 C6.71694737,49.5511628 6.72447368,49.5511628 6.73257895,49.5511628 C7.22121053,49.5511628 7.62242105,49.1604651 7.63573684,48.6674419 C7.68610526,46.7546512 7.77178947,43.4854651 8.43584211,39.4738372 C8.46536842,39.3889535 8.47752632,39.3 8.481,39.2110465 C8.92447368,36.6110465 9.61284211,33.7116279 10.6885263,30.6703488 C15.1087895,26.9226744 22.1852632,25.9645349 22.2570526,25.9552326 C22.7514737,25.8912791 23.1017368,25.4360465 23.0374737,24.9395349 C22.9743684,24.4430233 22.5239474,24.0883721 22.0266316,24.1552326 C21.7608947,24.1895349 16.4438421,24.9046512 11.8869474,27.6098837 C13.9995263,22.7255814 17.1802632,17.6313953 21.9913158,12.9517442 C22.3496842,12.602907 22.3589474,12.0284884 22.0115789,11.6686047 C21.6642105,11.3093023 21.0922105,11.3 20.7338421,11.6482558 C17.7412632,14.5587209 15.3617895,17.6203488 13.4582105,20.6947674 L13.2561579,16.525 C13.2324211,16.0244186 12.8097895,15.6424419 12.3101579,15.6627907 C11.8122632,15.6872093 11.4278421,16.1122093 11.4515789,16.6127907 L11.7775263,23.3540698 C11.7815789,23.4267442 11.7948947,23.4965116 11.8145789,23.5633721 C9.26547368,28.4052326 7.81868421,33.1668605 6.99021053,37.3133721 C4.07173684,34.1523256 2.43852632,30.1593023 2.35921053,25.9017442 C2.27121053,21.144186 4.12731579,16.4453488 7.32484211,13.3313953 C13.8993684,6.93023256 22.4220526,4.3372093 30.1191579,2.54302326 C29.6814737,4.42209302 29.2038421,6.62151163 28.9728421,7.94244186 C28.1704211,12.5331395 28.6590526,17.1238372 29.1795263,21.0662791 C30.2453684,29.130814 27.3054737,34.1366279 19.9262105,36.8215116 C17.6457368,37.6505814 15.1070526,38.1767442 11.6964737,38.5273256 C11.2003158,38.5784884 10.8390526,39.0238372 10.8888421,39.5226744 C10.9368947,39.9895349 11.3294211,40.3372093 11.7867895,40.3372093 C11.8180526,40.3372093 11.8487368,40.3354651 11.88,40.3325581 C15.444,39.9662791 18.1158421,39.4093023 20.5410526,38.527907 C28.6260526,35.5866279 32.1344737,29.6313953 30.9707895,20.8273256 C30.4682632,17.019186 29.9941053,12.5924419 30.7525263,8.25581395 C31.0391053,6.61744186 31.7187895,3.57790698 32.2132105,1.5494186 L32.5594211,0.128488372 L31.1381053,0.448255814 C22.8446842,2.31511628 13.3841053,4.90406977 6.06678947,12.027907 C2.51668421,15.4854651 0.455052632,20.6843023 0.552894737,25.9343023 C0.647842105,31.0819767 2.794,35.8726744 6.59884211,39.4901163 Z" id="Shape"></path>
            </g>
        </g>
    </g>
</svg>