<?xml version="1.0" encoding="UTF-8"?>
<svg width="60px" height="60px" viewBox="0 0 60 60" version="1.1" xmlns="http://www.w3.org/2000/svg" xmlns:xlink="http://www.w3.org/1999/xlink">
    <!-- Generator: Sketch 47.1 (45422) - http://www.bohemiancoding.com/sketch -->
    <title>ads</title>
    <desc>Created with Sketch.</desc>
    <defs></defs>
    <g id="Page-1" stroke="none" stroke-width="1" fill="none" fill-rule="evenodd" stroke-linecap="round" stroke-linejoin="round">
        <g id="ads" stroke="#433939">
            <g transform="translate(8.000000, 7.000000)">
                <path d="M8.70652174,21.9822917 L4.5,21.9822917 C2.20108696,21.9822917 0.342391304,23.8427083 0.342391304,26.14375 C0.342391304,28.4447917 2.20108696,30.3052083 4.5,30.3052083 L8.70652174,30.3052083 C12.326087,30.696875 17.1684783,31.6270833 22.6467391,33.8302083 C27.8804348,35.984375 31.9402174,38.5791667 34.7771739,40.7333333 C34.7771739,30.990625 34.7771739,21.2479167 34.7771739,11.5052083 C31.9402174,13.6104167 28.0271739,16.1072917 23.0380435,18.1635417 C17.4619565,20.4645833 12.4728261,21.4927083 8.70652174,21.9822917 Z" id="Shape" stroke-width="1.4784"></path>
                <path d="M6.79891304,31.2354167 L9.88043478,45.4822917 C10.125,46.3635417 10.9076087,47 11.8369565,47 L11.8369565,47 C13.1576087,47 14.1358696,45.7760417 13.7934783,44.503125 L10.8097826,30.5989583" id="Shape" stroke-width="1.4784"></path>
                <path d="M35.5108696,22.61875 L35.5108696,22.61875 C36.9782609,22.61875 38.1521739,23.79375 38.1521739,25.2625 L38.1521739,27.025 C38.1521739,28.49375 36.9782609,29.66875 35.5108696,29.66875 L35.5108696,29.66875" id="Shape" stroke-width="1.4784"></path>
                <path d="M39.5706522,23.059375 L43.4836957,20.415625" id="Shape" stroke-width="1.4784"></path>
                <path d="M43.4836957,31.9208333 L39.5706522,29.2770833" id="Shape" stroke-width="1.4784"></path>
                <rect id="Rectangle-path" stroke-width="1.47835069" transform="translate(13.114311, 8.422870) rotate(-14.365598) translate(-13.114311, -8.422870) " x="3.72331973" y="2.15641233" width="18.7819823" height="12.5329153"></rect>
                <path d="M3.13043478,5.140625 C6.60326087,6.36458333 10.076087,7.58854167 13.548913,8.8125 C15.8967391,5.875 18.2934783,2.9375 20.6413043,0" id="Shape" stroke-width="1.4784"></path>
                <path d="M5.57608696,16.7927083 C6.99456522,13.953125 8.90217391,10.721875 10.3206522,7.83333333" id="Shape" stroke-width="1.4784"></path>
                <path d="M15.8967391,7.14791667 L23.3804348,11.9947917" id="Shape" stroke-width="1.4784"></path>
            </g>
        </g>
    </g>
</svg>