<?xml version="1.0" encoding="UTF-8"?>
<svg width="60px" height="60px" viewBox="0 0 60 60" version="1.1" xmlns="http://www.w3.org/2000/svg" xmlns:xlink="http://www.w3.org/1999/xlink">
    <!-- Generator: Sketch 47.1 (45422) - http://www.bohemiancoding.com/sketch -->
    <title>place</title>
    <desc>Created with Sketch.</desc>
    <defs></defs>
    <g id="Page-1" stroke="none" stroke-width="1" fill="none" fill-rule="evenodd">
        <g id="place" stroke="#433939" stroke-width="0.5" fill="#433939" fill-rule="nonzero">
            <g transform="translate(5.000000, 9.000000)" id="Shape">
                <path d="M25.1139371,18.0541526 C25.2291371,18.0541526 25.3443371,18.0541526 25.4595371,18.0541526 L25.4595371,18.0541526 C28.7427371,17.8237526 31.2771371,14.9437526 31.0467371,11.6605526 C30.9315371,10.0477526 30.2403371,8.60775264 29.0307371,7.51335264 C27.8211371,6.41895264 26.2659371,5.90055264 24.6531371,6.01575264 C21.3699371,6.18855264 18.8355371,9.06855264 19.0083371,12.4093526 C19.2963371,15.5773526 22.0035371,18.0541526 25.1139371,18.0541526 Z M24.8259371,7.22535264 C24.9411371,7.22535264 25.0563371,7.22535264 25.1715371,7.22535264 C26.3811371,7.22535264 27.4755371,7.62855264 28.3971371,8.43495264 C29.3763371,9.29895264 29.9523371,10.4509526 30.0099371,11.7757526 C30.1827371,14.4253526 28.1091371,16.7869526 25.4595371,16.9597526 C22.8099371,17.1325526 20.4483371,15.0589526 20.2755371,12.4093526 C20.1027371,9.64455264 22.1187371,7.34055264 24.8259371,7.22535264 Z"></path>
                <path d="M0,42.912 L50.112,42.912 L45.216,21.4848 L35.0208,21.4848 C35.6544,20.5056 36.1152,19.872 36.1728,19.7568 C36.2304,19.6992 36.2304,19.6416 36.288,19.584 C36.3456,19.5264 36.4032,19.4112 36.4032,19.3536 C36.9216,18.4896 37.3248,17.568 37.5552,16.5312 C37.9008,15.4368 38.016,14.2272 38.016,13.0176 C38.016,5.8176 32.1984,0 24.9984,0 C17.7984,0 11.9808,5.8176 11.9808,13.0176 C11.9808,13.3056 11.9808,13.536 12.0384,13.824 C12.096,14.9184 12.2688,16.0128 12.6144,16.992 C12.96,18.0288 13.4208,19.008 13.9968,19.872 L14.0544,19.9296 C14.1696,20.1024 14.4576,20.5632 14.9184,21.1968 L14.976,21.2544 C15.0336,21.312 15.0336,21.3696 15.0912,21.4272 L4.896,21.4272 L0,42.912 Z M15.0336,19.2384 C14.5152,18.432 14.112,17.6256 13.824,16.6464 C13.536,15.7248 13.3632,14.7456 13.3056,13.7664 C13.3056,13.536 13.248,13.3056 13.248,13.0176 C13.248,6.4512 18.5472,1.152 25.1136,1.152 C31.6224,1.152 36.9792,6.4512 36.9792,13.0176 C36.9792,14.112 36.8064,15.2064 36.5184,16.2432 C36.288,17.1648 35.9424,18.0288 35.4816,18.7776 C35.424,18.8352 35.424,18.8928 35.3664,18.9504 C35.3088,19.008 35.2512,19.1232 35.2512,19.1232 C35.0208,19.4688 26.2656,32.544 25.632,33.5232 C25.5744,33.5808 25.5744,33.6384 25.5168,33.696 C25.2864,33.984 24.8256,33.984 24.6528,33.696 L24.5376,33.5808 C23.7888,32.4288 18.144,24.0768 15.9552,20.736 L15.8976,20.6784 C15.4944,20.0448 15.1488,19.584 15.0336,19.4112 L15.0336,19.2384 Z M15.8976,22.6368 C18.432,26.496 22.9248,33.12 23.5584,34.1568 L23.6736,34.272 C23.9616,34.7328 24.5376,35.0208 25.056,35.0208 C25.632,35.0208 26.1504,34.7328 26.4384,34.272 L26.496,34.1568 C26.5536,34.0992 31.4496,26.8416 34.272,22.6368 L44.352,22.6368 L48.672,41.76 L1.44,41.76 L5.76,22.6368 L15.8976,22.6368 Z"></path>
            </g>
        </g>
    </g>
</svg>