<?xml version="1.0" encoding="UTF-8"?>
<svg width="60px" height="60px" viewBox="0 0 60 60" version="1.1" xmlns="http://www.w3.org/2000/svg" xmlns:xlink="http://www.w3.org/1999/xlink">
    <!-- Generator: Sketch 47.1 (45422) - http://www.bohemiancoding.com/sketch -->
    <title>space</title>
    <desc>Created with Sketch.</desc>
    <defs></defs>
    <g id="Page-1" stroke="none" stroke-width="1" fill="none" fill-rule="evenodd">
        <g id="space" fill-rule="nonzero" fill="#433939">
            <path d="M48.4,16.2 C49.92168,16.2 51.16,17.43832 51.16,18.96 C51.16,19.46784 51.57124,19.88 52.08,19.88 C52.58876,19.88 53,19.46784 53,18.96 L53,13.44 C53,13.1502 52.86384,12.87788 52.632,12.704 L45.272,7.184 C45.11284,7.0644 44.91964,7 44.72,7 L15.28,7 C15.08128,7 14.88716,7.0644 14.728,7.184 L7.368,12.704 C7.13616,12.87788 7,13.1502 7,13.44 L7,18.9554 C7,19.46324 7.41124,19.8754 7.92,19.8754 L7.92,19.8754 C8.42784,19.8754 8.84,19.46416 8.84,18.95632 C8.84184,17.43648 10.08016,16.2 11.6,16.2 C13.12168,16.2 14.36,17.43832 14.36,18.96 L14.36,34.6 L7.92,34.6 C7.41216,34.6 7,35.01124 7,35.52 L7,46.56 C7,47.06876 7.41216,47.48 7.92,47.48 L10.7536,47.48 C11.20256,50.59604 13.8816,53 17.12,53 C20.3584,53 23.03744,50.59604 23.4864,47.48 L36.5136,47.48 C36.96256,50.59604 39.64252,53 42.88,53 C46.11748,53 48.79744,50.59604 49.2464,47.48 L52.08,47.48 C52.58876,47.48 53,47.06876 53,46.56 L53,35.52 C53,35.01124 52.58876,34.6 52.08,34.6 L45.64,34.6 L45.64,18.96 C45.64,17.43832 46.87832,16.2 48.4,16.2 Z M11.6,14.36 C10.56592,14.36 9.61004,14.70408 8.84,15.28184 L8.84,13.9 L15.58636,8.84 L44.41272,8.84 L51.16,13.9 L51.16,15.28184 C50.39088,14.70408 49.435,14.36 48.4,14.36 C46.89672,14.36 45.55996,15.08496 44.72,16.20276 C43.88004,15.08496 42.54328,14.36 41.04,14.36 C39.53672,14.36 38.19996,15.08496 37.36,16.20276 C36.52004,15.08496 35.18328,14.36 33.68,14.36 C32.17672,14.36 30.83996,15.08496 30,16.20276 C29.16004,15.08496 27.82328,14.36 26.32,14.36 C24.81672,14.36 23.47996,15.08496 22.64,16.20276 C21.80004,15.08496 20.46328,14.36 18.96,14.36 C17.45672,14.36 16.11996,15.08496 15.28,16.20276 C14.44004,15.08496 13.10328,14.36 11.6,14.36 Z M17.12,51.16 C14.58356,51.16 12.52,49.09644 12.52,46.56 C12.52,44.02356 14.58356,41.96 17.12,41.96 C19.65644,41.96 21.72,44.02356 21.72,46.56 C21.72,49.09644 19.65644,51.16 17.12,51.16 Z M42.88,51.16 C40.34356,51.16 38.28,49.09644 38.28,46.56 C38.28,44.02356 40.34356,41.96 42.88,41.96 C45.41644,41.96 47.48,44.02356 47.48,46.56 C47.48,49.09644 45.41644,51.16 42.88,51.16 Z M51.16,45.64 L49.2464,45.64 C48.79744,42.52396 46.11748,40.12 42.88,40.12 C39.64252,40.12 36.96256,42.52396 36.5136,45.64 L23.4864,45.64 C23.03744,42.52396 20.3584,40.12 17.12,40.12 C13.8816,40.12 11.20256,42.52396 10.7536,45.64 L8.84,45.64 L8.84,36.44 L51.16,36.44 L51.16,45.64 Z M16.2,34.6 L16.2,18.96 C16.2,17.43832 17.43832,16.2 18.96,16.2 C20.48168,16.2 21.72,17.43832 21.72,18.96 C21.72,19.46784 22.13216,19.88 22.64,19.88 C23.14784,19.88 23.56,19.46784 23.56,18.96 C23.56,17.43832 24.79832,16.2 26.32,16.2 C27.84168,16.2 29.08,17.43832 29.08,18.96 C29.08,19.46784 29.49216,19.88 30,19.88 C30.50784,19.88 30.92,19.46784 30.92,18.96 C30.92,17.43832 32.15832,16.2 33.68,16.2 C35.20168,16.2 36.44,17.43832 36.44,18.96 C36.44,19.46784 36.85124,19.88 37.36,19.88 C37.86876,19.88 38.28,19.46784 38.28,18.96 C38.28,17.43832 39.51832,16.2 41.04,16.2 C42.56168,16.2 43.8,17.43832 43.8,18.96 L43.8,34.6 L16.2,34.6 Z" id="ready"></path>
        </g>
    </g>
</svg>