<?xml version="1.0" encoding="UTF-8"?>
<svg width="60px" height="60px" viewBox="0 0 60 60" version="1.1" xmlns="http://www.w3.org/2000/svg" xmlns:xlink="http://www.w3.org/1999/xlink">
    <!-- Generator: Sketch 47.1 (45422) - http://www.bohemiancoding.com/sketch -->
    <title>storage</title>
    <desc>Created with Sketch.</desc>
    <defs></defs>
    <g id="Page-1" stroke="none" stroke-width="1" fill="none" fill-rule="evenodd">
        <g id="storage" stroke="#433939" stroke-width="0.5" fill="#433939" fill-rule="nonzero">
            <path d="M23.2548864,7.00755394 C23.2166211,7.01377152 23.1791211,7.02428581 23.1432793,7.0388946 L5.28613611,15.1268067 C4.99895243,15.2562183 4.9048708,15.6800451 5.11075345,15.9168946 L10.9462129,22.6779038 L5.11075345,29.4231062 C4.9051157,29.6599304 4.99915652,30.0833832 5.28613611,30.2128909 L11.1056517,32.850915 L11.1056517,43.8997106 C11.1071823,44.0926073 11.2306721,44.2793876 11.4085854,44.3577898 L29.7599885,52.4457019 C29.890014,52.5029744 30.0445038,52.5029744 30.1745293,52.4457019 L48.5578201,44.3577898 C48.7357334,44.2793876 48.859264,44.0926073 48.8607538,43.8997106 L48.8607538,32.850915 L54.6802691,30.2128909 C54.9672487,30.0833832 55.0612895,29.6599304 54.8556517,29.4231062 L49.0201925,22.6779038 L54.8556517,15.9168946 C55.0613303,15.6800502 54.9672844,15.2565115 54.6802691,15.1270594 L36.8231262,7.03914735 C36.7331262,7.0017913 36.6321874,6.99077152 36.5361364,7.00780669 C36.426514,7.02752097 36.3239578,7.08396954 36.2491466,7.16577372 L29.9832027,13.8475012 L23.7172589,7.16552097 C23.6027487,7.04100251 23.4225191,6.97942823 23.2548864,7.00755394 L23.2548864,7.00755394 Z M23.238968,8.11332317 L29.1222589,14.4004111 L11.7434323,22.0618071 L6.32251371,15.7747495 L23.238968,8.11332317 Z M36.7274885,8.11332317 L53.6439425,15.7747495 L48.2230242,22.0618071 L30.8441976,14.4004111 L36.7274885,8.11332317 Z M29.9832027,15.1428814 L47.0909834,22.6779038 L29.9832027,30.1971194 L12.8754221,22.6779038 L29.9832027,15.1428814 Z M11.7434068,23.2781786 L29.1222334,30.9395898 L23.2389425,37.2265766 L6.3224882,29.5652513 L11.7434068,23.2781786 Z M48.2229987,23.2781786 L53.643917,29.5652513 L36.7274629,37.2265766 L30.8441721,30.9395898 L48.2229987,23.2781786 Z M29.4729987,32.0294865 L29.4729987,51.1977876 L12.1260599,43.5521832 L12.1260599,33.3089942 L23.1432793,38.3007524 C23.3360395,38.3804689 23.5767129,38.3275436 23.7172589,38.1743788 L29.4729987,32.0294865 Z M30.4934068,32.0294865 L36.2491466,38.1743788 C36.3896925,38.3274931 36.630366,38.3804689 36.8231262,38.3007524 L47.8403456,33.3089942 L47.8403456,43.5521832 L30.4934068,51.1819656 L30.4934068,32.0294865 Z" id="Shape"></path>
        </g>
    </g>
</svg>