<?xml version="1.0" encoding="UTF-8"?>
<svg width="70px" height="90px" viewBox="0 0 70 90" version="1.1" xmlns="http://www.w3.org/2000/svg" xmlns:xlink="http://www.w3.org/1999/xlink">
    <!-- Generator: Sketch 49 (51002) - http://www.bohemiancoding.com/sketch -->
    <title>Logo</title>
    <desc>Created with Sketch.</desc>
    <defs></defs>
    <g id="Page-1" stroke="none" stroke-width="1" fill="none" fill-rule="evenodd">
        <g id="Soloma-00" transform="translate(-605.000000, -213.000000)" fill="#444444">
            <g id="Group-4">
                <g id="Group-5" transform="translate(396.000000, 177.000000)">
                    <g id="Logo" transform="translate(206.000000, 36.000000)">
                        <path d="M37.5015685,25.7194814 C38.1406656,25.7194814 38.6587561,26.2375719 38.6587561,26.8766691 L38.6587561,87.9222943 C38.6587561,88.5613914 38.1406656,89.079482 37.5015685,89.079482 C36.8624714,89.079482 36.3443808,88.5613914 36.3443808,87.9222943 L36.3443808,26.8766691 C36.3443808,26.2375719 36.8624714,25.7194814 37.5015685,25.7194814 Z M37.5676772,0.261352632 C40.2765048,4.33232961 41.6587653,8.38947713 41.7144587,12.4327952 C41.7701521,16.4761132 40.3954488,20.5273453 37.5903488,24.5864913 C34.8017799,20.8229599 33.3593593,16.7717279 33.263087,12.4327952 C33.1668146,8.09386245 34.601678,4.03671493 37.5676772,0.261352632 Z M51.3791794,15.5139694 C52.1137418,20.3483276 51.6518706,24.6095205 49.9935659,28.2975482 C48.3352612,31.9855759 45.3772323,35.0762643 41.1194791,37.5696134 C40.1827145,32.9801956 40.587562,28.6989391 42.3340219,24.7258441 C44.0804817,20.7527492 47.0955342,17.6821242 51.3791794,15.5139694 Z M23.7883173,15.5139694 C28.0719625,17.6821242 31.087015,20.7527492 32.8334748,24.7258441 C34.5799346,28.6989391 34.9847822,32.9801956 34.0480176,37.5696134 C29.7902644,35.0762643 26.8322355,31.9855759 25.1739308,28.2975482 C23.5156261,24.6095205 23.0537549,20.3483276 23.7883173,15.5139694 Z M51.3791794,34.4147014 C52.1137418,39.2490595 51.6518706,43.5102524 49.9935659,47.1982801 C48.3352612,50.8863078 45.3772323,53.9769962 41.1194791,56.4703454 C40.1827145,51.8809275 40.587562,47.5996711 42.3340219,43.6265761 C44.0804817,39.6534811 47.0955342,36.5828562 51.3791794,34.4147014 Z M23.7883173,34.4147014 C28.0719625,36.5828562 31.087015,39.6534811 32.8334748,43.6265761 C34.5799346,47.5996711 34.9847822,51.8809275 34.0480176,56.4703454 C29.7902644,53.9769962 26.8322355,50.8863078 25.1739308,47.1982801 C23.5156261,43.5102524 23.0537549,39.2490595 23.7883173,34.4147014 Z M51.3791794,54.8583502 C52.1137418,59.6927084 51.6518706,63.9539013 49.9935659,67.641929 C48.3352612,71.3299567 45.3772323,74.4206451 41.1194791,76.9139942 C40.1827145,72.3245763 40.587562,68.0433199 42.3340219,64.0702249 C44.0804817,60.09713 47.0955342,57.026505 51.3791794,54.8583502 Z M23.7883173,54.8583502 C28.0719625,57.026505 31.087015,60.09713 32.8334748,64.0702249 C34.5799346,68.0433199 34.9847822,72.3245763 34.0480176,76.9139942 C29.7902644,74.4206451 26.8322355,71.3299567 25.1739308,67.641929 C23.5156261,63.9539013 23.0537549,59.6927084 23.7883173,54.8583502 Z"></path>
                        <path d="M3.61328125,23.6210938 C3.61328125,22.9082031 3.70117187,22.3417969 3.8671875,21.6484375 L5.83007812,21.6484375 L5.83007812,22.4589844 C5.83007812,24.2558594 6.24023437,25.2421875 7.47070312,25.2421875 C8.42773437,25.2421875 8.95507812,24.6953125 8.95507812,23.6894531 C8.95507812,22.6542969 8.7109375,22.0292969 7.78320312,20.8476562 L5.14648437,17.7128906 C4.21875,16.5214844 3.68164062,15.3300781 3.68164062,13.953125 C3.68164062,11.7363281 5.08789062,10.1738281 7.51953125,10.1738281 C10.46875,10.1738281 11.3378906,12.0195312 11.3378906,13.7089844 C11.3378906,14.421875 11.2011719,14.9785156 11.0644531,15.7011719 L9.11132812,15.7011719 L9.11132812,14.9101562 C9.11132812,13.1523438 8.6328125,12.1660156 7.49023437,12.1660156 C6.54296875,12.1660156 6.07421875,12.7421875 6.07421875,13.6210938 C6.07421875,14.5683594 6.37695312,15.0664062 6.86523437,15.7109375 L9.8046875,19.265625 C10.8789062,20.6621094 11.4648437,21.8730469 11.4648437,23.3085938 C11.4648437,25.671875 9.93164062,27.15625 7.49023437,27.15625 C4.47265625,27.15625 3.61328125,25.3984375 3.61328125,23.6210938 Z M7.51953125,54.1464844 C5.8984375,54.1464844 3.36914062,53.5800781 3.36914062,48.5703125 L3.36914062,42.6621094 C3.36914062,37.6328125 5.95703125,37.1738281 7.51953125,37.1738281 C9.0234375,37.1738281 11.6308594,37.5546875 11.6308594,42.6621094 L11.6308594,48.5703125 C11.6308594,53.5214844 8.97460938,54.1464844 7.51953125,54.1464844 Z M7.51953125,52.2421875 C8.515625,52.2421875 8.99414062,51.6269531 8.99414062,49.5566406 L8.99414062,41.96875 C8.99414062,39.8300781 8.515625,39.1660156 7.51953125,39.1660156 C6.49414062,39.1660156 6.015625,39.8300781 6.015625,41.96875 L6.015625,49.5566406 C6.015625,51.6269531 6.49414062,52.2421875 7.51953125,52.2421875 Z M5.13671875,81 L5.13671875,64.3203125 L7.66601562,64.3203125 L7.66601562,79.0078125 L11.1132812,79.0078125 L11.1132812,81 L5.13671875,81 Z" id="S-O-L"></path>
                        <path d="M67.0195312,27.1464844 C65.3984375,27.1464844 62.8691406,26.5800781 62.8691406,21.5703125 L62.8691406,15.6621094 C62.8691406,10.6328125 65.4570312,10.1738281 67.0195312,10.1738281 C68.5234375,10.1738281 71.1308594,10.5546875 71.1308594,15.6621094 L71.1308594,21.5703125 C71.1308594,26.5214844 68.4746094,27.1464844 67.0195312,27.1464844 Z M67.0195312,25.2421875 C68.015625,25.2421875 68.4941406,24.6269531 68.4941406,22.5566406 L68.4941406,14.96875 C68.4941406,12.8300781 68.015625,12.1660156 67.0195312,12.1660156 C65.9941406,12.1660156 65.515625,12.8300781 65.515625,14.96875 L65.515625,22.5566406 C65.515625,24.6269531 65.9941406,25.2421875 67.0195312,25.2421875 Z M61.3847656,54 L61.3847656,37.3203125 L64.6855469,37.3203125 L66.2871094,43.7753906 C66.6289062,45.2011719 66.7949219,46.5195312 66.9707031,47.6523438 L67.0488281,47.6523438 C67.2246094,46.5195312 67.390625,45.2011719 67.7324219,43.7753906 L69.3828125,37.3203125 L72.6152344,37.3203125 L72.6152344,54 L70.2519531,54 L70.2519531,48.4824219 C70.2519531,45.09375 70.4082031,42.1347656 70.515625,40.9628906 L70.3300781,40.9628906 L67.8105469,51.8515625 L66.2089844,51.8515625 L63.6699219,40.9628906 L63.484375,40.9628906 C63.5917969,42.1347656 63.7480469,45.09375 63.7480469,48.4824219 L63.7480469,54 L61.3847656,54 Z M62.4638672,81 L65.5400391,64.3203125 L68.4501953,64.3203125 L71.5361328,81 L68.9775391,81 L68.5185547,78.0117188 L65.4716797,78.0117188 L65.0322266,81 L62.4638672,81 Z M65.7646484,76.1074219 L68.2255859,76.1074219 L67.0537109,67.796875 L66.9462891,67.796875 L65.7646484,76.1074219 Z" id="O-M-A"></path>
                    </g>
                </g>
            </g>
        </g>
    </g>
</svg>