<?xml version="1.0" encoding="UTF-8"?>
<svg width="74px" height="90px" viewBox="0 0 74 90" version="1.1" xmlns="http://www.w3.org/2000/svg" xmlns:xlink="http://www.w3.org/1999/xlink">
    <!-- Generator: Sketch 48.1 (47250) - http://www.bohemiancoding.com/sketch -->
    <title>Logo</title>
    <desc>Created with Sketch.</desc>
    <defs></defs>
    <g id="Symbols" stroke="none" stroke-width="1" fill="none" fill-rule="evenodd">
        <g id="Logo" fill="#444444">
            <path d="M35.5015685,25.7194814 C36.1406656,25.7194814 36.6587561,26.2375719 36.6587561,26.8766691 L36.6587561,87.9222943 C36.6587561,88.5613914 36.1406656,89.079482 35.5015685,89.079482 C34.8624714,89.079482 34.3443808,88.5613914 34.3443808,87.9222943 L34.3443808,26.8766691 C34.3443808,26.2375719 34.8624714,25.7194814 35.5015685,25.7194814 Z M35.5676772,0.261352632 C38.2765048,4.33232961 39.6587653,8.38947713 39.7144587,12.4327952 C39.7701521,16.4761132 38.3954488,20.5273453 35.5903488,24.5864913 C32.8017799,20.8229599 31.3593593,16.7717279 31.263087,12.4327952 C31.1668146,8.09386245 32.601678,4.03671493 35.5676772,0.261352632 Z M49.3791794,15.5139694 C50.1137418,20.3483276 49.6518706,24.6095205 47.9935659,28.2975482 C46.3352612,31.9855759 43.3772323,35.0762643 39.1194791,37.5696134 C38.1827145,32.9801956 38.587562,28.6989391 40.3340219,24.7258441 C42.0804817,20.7527492 45.0955342,17.6821242 49.3791794,15.5139694 Z M21.7883173,15.5139694 C26.0719625,17.6821242 29.087015,20.7527492 30.8334748,24.7258441 C32.5799346,28.6989391 32.9847822,32.9801956 32.0480176,37.5696134 C27.7902644,35.0762643 24.8322355,31.9855759 23.1739308,28.2975482 C21.5156261,24.6095205 21.0537549,20.3483276 21.7883173,15.5139694 Z M49.3791794,34.4147014 C50.1137418,39.2490595 49.6518706,43.5102524 47.9935659,47.1982801 C46.3352612,50.8863078 43.3772323,53.9769962 39.1194791,56.4703454 C38.1827145,51.8809275 38.587562,47.5996711 40.3340219,43.6265761 C42.0804817,39.6534811 45.0955342,36.5828562 49.3791794,34.4147014 Z M21.7883173,34.4147014 C26.0719625,36.5828562 29.087015,39.6534811 30.8334748,43.6265761 C32.5799346,47.5996711 32.9847822,51.8809275 32.0480176,56.4703454 C27.7902644,53.9769962 24.8322355,50.8863078 23.1739308,47.1982801 C21.5156261,43.5102524 21.0537549,39.2490595 21.7883173,34.4147014 Z M49.3791794,54.8583502 C50.1137418,59.6927084 49.6518706,63.9539013 47.9935659,67.641929 C46.3352612,71.3299567 43.3772323,74.4206451 39.1194791,76.9139942 C38.1827145,72.3245763 38.587562,68.0433199 40.3340219,64.0702249 C42.0804817,60.09713 45.0955342,57.026505 49.3791794,54.8583502 Z M21.7883173,54.8583502 C26.0719625,57.026505 29.087015,60.09713 30.8334748,64.0702249 C32.5799346,68.0433199 32.9847822,72.3245763 32.0480176,76.9139942 C27.7902644,74.4206451 24.8322355,71.3299567 23.1739308,67.641929 C21.5156261,63.9539013 21.0537549,59.6927084 21.7883173,54.8583502 Z"></path>
            <text id="S-O-L" font-family=".SFNSDisplay, .SF NS Display" font-size="20" font-weight="normal" line-spacing="27" letter-spacing="5">
                <tspan x="0" y="25">S</tspan>
                <tspan x="0" y="52">O</tspan>
                <tspan x="0.0751953125" y="79">L</tspan>
            </text>
            <text id="O-M-A" font-family=".SFNSDisplay, .SF NS Display" font-size="20" font-weight="normal" line-spacing="27" letter-spacing="5">
                <tspan x="57.5048828" y="25">O</tspan>
                <tspan x="57.5" y="52">M</tspan>
                <tspan x="58.5107422" y="79">A</tspan>
            </text>
        </g>
    </g>
</svg>